<svg width="1080" height="1080" viewBox="0 0 1080 1080" fill="none" xmlns="http://www.w3.org/2000/svg">
<g clip-path="url(#clip0_1_2)">
<circle cx="387.7" cy="747.97" r="152.887" transform="rotate(45 387.7 747.97)" stroke="#4B8EA9" stroke-width="50"/>
<circle cx="232.843" cy="593.114" r="152.887" transform="rotate(45 232.843 593.114)" stroke="#4B8EA9" stroke-width="50"/>
<path d="M221.149 900.417C184.214 937.351 122.13 937.162 82.4594 897.491C42.7887 857.821 42.5994 795.737 79.5343 758.802C116.469 721.867 178.553 722.056 218.224 761.727C257.895 801.398 258.084 863.482 221.149 900.417Z" stroke="#4B8EA9" stroke-width="50"/>
<path d="M383.227 563.507C380.396 554.285 377.286 544.713 374.198 536.607C374.361 536.251 374.518 535.905 374.671 535.57C374.825 535.232 374.974 534.905 375.118 534.588C376.601 531.338 377.457 529.533 378.353 527.919C379.8 525.314 381.945 522.11 389.247 514.145C417.703 486.008 455.437 486.995 474.1 505.658C492.84 524.398 493.757 562.368 465.261 590.864C457.761 598.364 454.33 601.54 451.165 603.783C450.01 604.602 448.753 605.39 447.091 606.25C445.253 605.523 443.425 604.851 441.662 604.231C435.173 601.95 427.777 599.773 420.21 597.817C410.94 595.42 400.932 593.229 391.392 591.532C388.862 582.456 386.06 572.736 383.227 563.507Z" stroke="#4B8EA9" stroke-width="50"/>
<rect x="797.485" y="147.098" width="50" height="507" rx="25" transform="rotate(45 797.485 147.098)" fill="#4B8EA9"/>
<path d="M779.807 164.775C789.57 155.012 805.399 155.012 815.163 164.775L893.651 243.264L840.882 261.205L779.807 200.131C770.044 190.367 770.044 174.538 779.807 164.775V164.775Z" fill="#4B8EA9"/>
<path d="M674.211 193.823C683.974 184.06 699.803 184.06 709.566 193.823L809.976 294.233L774.62 329.588L674.211 229.179C664.448 219.416 664.448 203.587 674.211 193.823V193.823Z" fill="#4B8EA9"/>
<path d="M645.573 298.829C655.532 288.87 671.677 288.87 681.636 298.829L746.69 363.883L723.709 413.027L645.573 334.891C635.615 324.933 635.615 308.787 645.573 298.829V298.829Z" fill="#4B8EA9"/>
<circle cx="177.887" cy="177.887" r="152.887" transform="matrix(-0.707107 0.707107 0.707107 0.707107 692.114 496.401)" stroke="#4B8EA9" stroke-width="50"/>
<circle cx="177.887" cy="177.887" r="152.887" transform="matrix(-0.707107 0.707107 0.707107 0.707107 846.97 341.544)" stroke="#4B8EA9" stroke-width="50"/>
<path d="M858.664 900.417C895.599 937.351 957.683 937.162 997.354 897.491C1037.02 857.821 1037.21 795.737 1000.28 758.802C963.344 721.867 901.26 722.056 861.589 761.727C821.919 801.398 821.729 863.482 858.664 900.417Z" stroke="#4B8EA9" stroke-width="50"/>
<path d="M696.587 563.507C699.418 554.285 702.527 544.713 705.615 536.607C705.453 536.251 705.295 535.905 705.142 535.57C704.989 535.232 704.84 534.905 704.695 534.588C703.213 531.338 702.357 529.533 701.46 527.919C700.013 525.314 697.869 522.11 690.567 514.145C662.11 486.008 624.377 486.995 605.714 505.658C586.973 524.398 586.056 562.368 614.552 590.864C622.052 598.364 625.483 601.54 628.648 603.783C629.803 604.602 631.06 605.39 632.722 606.25C634.561 605.523 636.388 604.851 638.151 604.231C644.64 601.95 652.037 599.773 659.603 597.817C668.873 595.42 678.882 593.229 688.422 591.532C690.951 582.456 693.753 572.736 696.587 563.507Z" stroke="#4B8EA9" stroke-width="50"/>
<rect width="50" height="507" rx="25" transform="matrix(-0.707107 0.707107 0.707107 0.707107 282.329 147.098)" fill="#4B8EA9"/>
<path d="M300.006 164.775C290.243 155.012 274.414 155.012 264.651 164.775L186.162 243.264L238.932 261.205L300.006 200.131C309.769 190.367 309.769 174.538 300.006 164.775V164.775Z" fill="#4B8EA9"/>
<path d="M405.602 193.823C395.839 184.06 380.01 184.06 370.247 193.823L269.838 294.233L305.193 329.588L405.602 229.179C415.365 219.416 415.365 203.587 405.602 193.823V193.823Z" fill="#4B8EA9"/>
<path d="M434.24 298.829C424.282 288.87 408.136 288.87 398.178 298.829L333.124 363.883L356.105 413.027L434.24 334.891C444.199 324.933 444.199 308.787 434.24 298.829V298.829Z" fill="#4B8EA9"/>
</g>
<defs>
<clipPath id="clip0_1_2">
<rect width="1080" height="1080" fill="white"/>
</clipPath>
</defs>
</svg>
